# xmcd CD database file
#
# Track frame offsets:
#	150
#	21879
#	46337
#	66652
#	85842
#	104414
#	123796
#	147411
#	165633
#	187120
#	210192
#	232764
#	251776
#	271198
#	299250
#
# Disc length: 4283 seconds
#
# Revision: 0
# Processed by: cddbd v1.5.1PL0 Copyright (c) Steve Scherf et al.
# Submitted via: CDex 1.51
#
DISCID=d610b90f
DTITLE=Conjunto Clasico - Los Clasicos
DYEAR=1900
DGENRE=Salsa
TTITLE0=Sin Rumbo Alguno
TTITLE1=Amanecer En La Romana
TTITLE2=Cuando Se Quiere Se Quiere
TTITLE3=Guerrera
TTITLE4=Quiereme
TTITLE5=Los Rodriguez
TTITLE6=Yo Ya Lo Sabia
TTITLE7=Solitario
TTITLE8=Vigilandote
TTITLE9=Teresita
TTITLE10=Piraguero
TTITLE11=Señora Ley
TTITLE12=Ramona
TTITLE13=Masacote
TTITLE14=A Medellin
EXTD=
EXTT0=
EXTT1=
EXTT2=
EXTT3=
EXTT4=
EXTT5=
EXTT6=
EXTT7=
EXTT8=
EXTT9=
EXTT10=
EXTT11=
EXTT12=
EXTT13=
EXTT14=
PLAYORDER=
